/* XPM */
static char * mulogo_xpm[] = {
"100 131 10 1",
" 	c  None",
".	c  #221214",
"+	c  #888888",
"@	c  #CECECE",
"$	c  #FFA0A0",
"%	c  #FFE0E0",
"&	c  #555555",
"*	c  #FF0000",
"=	c  #FF6060",
"-	c  #B0B0B0",
"                                                                                                    ",
"                                                                                                    ",
"                                                                                                    ",
"                                                    %                                               ",
"                                                  @=$                                               ",
"                                               %$=*= %%                                             ",
"                                             $=***=% ==                                             ",
"                                          @$******@   =$                                            ",
"                                       %$=*******$    %*%                                           ",
"                                       =********=      $=                                           ",
"                                      $*********@       =$                                          ",
"                                     @*********$        %*@                                         ",
"                                     =********=          $=                                         ",
"                                %   =*********%           =$           %                            ",
"                                $  $*********$    $       %*@         $                             ",
"                                $ %=********=     $        $=         $                             ",
"                               @$  *********%     $%        =$       %$                             ",
"                               =@  =*******$       $%       @*@      $$                             ",
"                              %*%  $******=         %        $=%     =@                             ",
"                              $*   %*****=%                   ==    $*%                             ",
"                              ==    =****$                    @*$   ==                              ",
"                             @*$    =***=                      $=% %*=                              ",
"                             =*$    $**=%                       == $*$                              ",
"                            %**@    %**@          %%$@          @*$=*$                              ",
"                            $**$%%%% ==           == =           $***$%%%%                          ",
"                            =**=====*=           @**$$@           =**=====*=%                       ",
"                           $***%                 $**=@$           @**%                              ",
"                          @****%                 $**= $           %**%                              ",
"                          =****%            %$   $**= $    @@     %**%                              ",
"                         $*****%          %=%$@  $**= $  %=%$%    %**%                              ",
"                        @******% =$       $*= =  $**= $  $*=%=    %**% $=                           ",
"                        $******% %=       =**@=% $**= $  =**%=    %**%  *                           ",
"                        $******%  =       =**$$% $**= $  ***@=%   %**%  *                           ",
"                        $******%  =       =**$$@ $**= $  ***@$%   %**%  *                           ",
"                        $******%  =       =**$$@ $**= $  ***@$%   %**%  *                           ",
"                        $******%  =       =**$$@ $**= $  ***@$%   %**%  *                           ",
"                        $******%  =       =**$$@ $**= $  ***@$%   %**%  *                           ",
"                        $******%  =       =**$$@ $**= $  ***@$%   %**%  *                           ",
"                        $******%  =       =**$$@ $**= $  ***@$%   %**%  *                           ",
"                        $******%  =       =**$$@ $**= $  ***@$%   %**%  *                           ",
"                        $******%  =       =**$$@ $**= $  ***@$%   %**%  *                           ",
"                        $******%  $       $$$%%% %$$@ @  $$$%@    %**%  $                           ",
"                        $******%                                  %**%                              ",
"                        $*=$$@%=*************************************=======%                       ",
"                            %@$@%%%%%%%%%%%%%%%%%%%%%%%%%%%%%%%%%%%%%%%%%%%%                        ",
"                        @$=****%                                                                    ",
"                        $******%                                                                    ",
"                        $*==$$@$============================================%                       ",
"                        %%   %@$$$$$$$$$$$$$$$$$$$$$$$$$$$$$$$$$$$$$$$$$$$$%                        ",
"                        %$$=***%                                                                    ",
"                        $******%                                                                    ",
"                        $******%                   %@@@@%                                           ",
"                        $******%               %$=********=$%                                       ",
"                        $******%             %=**************=@                                     ",
"                        $******%            $******************=%                                   ",
"                        $******%           =********************=%                                  ",
"                        $******%          =**********************=%                                 ",
"                        $******%         =************************=                                 ",
"                        $******%        $**=$$@%%%@$=**************$                                ",
"                        $******%       %*=@           $=***********=                                ",
"                        $******%       $@               $***********@                               ",
"                        $******%                         $**********=                               ",
"                        $******%                          =*********=                               ",
"                        $******%                          %**********%                              ",
"                        $******%                           =*********%                              ",
"                        $******%                           $*********%                              ",
"                        $******%                           $*********%                              ",
"                        $******%                           $*********%                              ",
"                        $******%                           $*********%                              ",
"                        $******%                           $*********%                              ",
"                        $******%                           $*********%                              ",
"                        $******%                           $*********%                              ",
"                        $******%                           $*********%                              ",
"                        $******%                           $*********%                              ",
"                        $******%                           $*********%                              ",
"                        $******%                           $*********%                              ",
"                        $******%                           $*********%                              ",
"                        $******%                           $*********%                              ",
"                        $******%                           $*********%                              ",
"                        $******%                           $*********%                              ",
"                        $******%                           $*********%                              ",
"                         %$****%                           %$=*******%                              ",
"                           %$**%                              %$$=***%                              ",
"                             %$%                                  %$=%                              ",
"                                                                                                    ",
"                                                                                                    ",
"                                                                                                    ",
"                                                                                                    ",
"                                                                                                    ",
"                                                                                                    ",
"                                                                                                    ",
"                                                                                                    ",
"                                                                                                    ",
"                                                                                                    ",
"  %&--+-++ +-   -+  ++++      +-   @+- @&    %+  +- -&-   -+ -&++- -&---   --+- @+@ &+-+-+&%&-  --  ",
"  @  @&  @ &-   -+  +-        +-    .   .&    +  &-  &-   -   .     .  &@ @+  -  .     .  - -+  +   ",
"     @&    &@   -+  +-        +-    .   -&&   +  &@  @&   -   .     .  +- -+     .     .     &@@-   ",
"     @&    &@   -+  +- @      +-    .   - &+  +  &@   &   -   .  @  .  &   &&%   .     .     @&+    ",
"     @&    &+---++  ++-+      +-    .   -  .- +  &@   -+ -    .---  .-&@    -.-  .     .      &@    ",
"     @&    &@   -+  +-        +-    .   -  %.@+  &@    . -    .     . &-     %.  .     .      &@    ",
"     @&    &@   -+  +-        +-    .   -   -.+  &@    ++@    .     .  .  %   &  .     .      &@    ",
"     @&    &-   -+  +- @@     @&@  -.   -    -+  &-    @&     .  -  .  -& --  &  .     .      &@    ",
"     @-    --   --  ----       -++- -@ @-     @  --     @    %---@ @-@  -@ ---  @-@   @-%     -@    ",
"                                                                                                    ",
"                                                                                                    ",
"                                                                                                    ",
"               @                                                                                    ",
"              +-                                                          %                         ",
"             + -     .-   %.%    &+    -.@   %&   +-@-&+ @.@   .-  &+-+  +--+ &--.--& +&-+  .--&    ",
"            -+ -     +&   -.     -.     &.    -  &@    -  .    &@  &@   --       .    -+    &  ++   ",
"     %+---  &%@@     -&   -.     -&-    --&   - -&        .    &@  &@   -&       .    -+    &  -+   ",
"    %&   & @& -      +-+ -%&@   @@-&    - +&  - &+        .----&@  &+--  -.-     .    -&-+  &  &    ",
"    &@   . ++-       - & - &-   +  .@   -  &+ - &+        .    &@  &@ @    &&    .    -+ -  &+.@    ",
"    .   @& .-       %- +-- &-   +--&+   -   &-- +&        .    &@  &@       &    .    -+    & -&    ",
"    &   &-+&        -@ @.  ++  -    .   -    .+  .-    -  .    &@  &@   -   &    .    -+    &  ++   ",
"    ---&+-&@        +-  +  && %&    .+ -+    @+  %&+@--- @.@   &-  &+-+%-&@--   @.-   +&-+- .-  .-  ",
"      %  -+                                         %                     @                         ",
"         &                                                                                          ",
"        &@                                                                                          ",
"  -   @&%                                                                                           ",
"   ----                                                                                             ",
"                                                                                                    ",
"                                                                                                    ",
"                                                                                                    ",
"                                                                                                    ",
"                                                                                                    ",
"                                                                                                    ",
"                                                                                                    ",
"                                                                                                    ",
"                                                                                                    ",
"                                                                                                    "};
