/* XPM */
static char * komodoicon_xpm[] = {
"64 64 6 1",
" 	c None",
".	c #000000",
"+	c #00FF00",
"@	c #FFFF00",
"#	c #FF0000",
"%	c #0000FF",
"                                                                ",
"                                                #               ",
"                                                ##   ##         ",
"                                               ########         ",
"                                               #######          ",
"                                          ############          ",
"                                  ####################          ",
"                                 #######################        ",
"                                  ######################        ",
"                                  .......########               ",
"                              ...............###                ",
"                          ......................                ",
"                        ..........................              ",
"                      ..............................            ",
"                    .................................           ",
"                   ....................................         ",
"                  ......................................        ",
"                 ........................................       ",
"                ..........................................      ",
"               ....................+++....................      ",
"              ................+++++++++++++................     ",
"             ...............+++++++++++++++++...............    ",
"             .............+++++++++++++++++++++.............    ",
"         @@..............+++++++++++++++++++++++.............   ",
"        @@..............+++++++++++++++++++++++++............   ",
"        @@.............+++++++++++++++++++++++++++............  ",
"       @@.............+++++++++++  ++++++++++++   +...........  ",
"      @@@............+++++++++++  ++++++++++++     +........... ",
"     @@@@............+++++++++   ++++++++++++       ........... ",
"     @@@@...........++++++++++    ++++++++++        ........... ",
"    @@@@............+++++++++     ++++++++++         .......... ",
"   @@@@@...........++++++++++++    +++++++++         ...........",
"   @@@@@...........+++++++++++++++  +++++++++        ...........",
" @@@@@@@...........++++++++++++++++    +++++++       ...........",
"@@@@@@@@...........+++++++++++++++++     ++++++      .......... ",
"@@@@@@@@  .........+++++++++++++++++      ++++++     .......... ",
" @@@@@@@   ........+++++++++++++++++     +++++++++   .......... ",
" @@@@@@    ........++++++++++++++++++    ++++++++++  .......... ",
" @@@@@@      .......++++++++  +++++++   +++++++++++  .......... ",
"@@@@@@@      .......++++++     ++++++  +++++++++++  ........... ",
"@@@@@@@     .........+         +++++++     +++++    ..........  ",
" @@  @@     .........+          ++++++     ++++     ..........  ",
"      @    ...........          +++++++     ++     ..........   ",
"           ...........+         +++++++     ++     ..........   ",
"           ............         +++++++++         ..........    ",
"          %%...........        ++++++++++         ..........    ",
"          %%...........        ++++++++++        ..........     ",
"          %%%..........        ++++++++         ...........     ",
"          %%%%.........           ++++         ...........      ",
"          %%%%%........            +++        ...........       ",
"          %%%%%%.......              +      ............        ",
"           %%%%%%.....                     ............         ",
"           %%%%%%%%...                   .............          ",
"            %%%%%%%%..                 .............            ",
"            %%%%%%%%%                 ............              ",
"            %%%%%%%%%              .............                ",
"             %%%%%%%%            .............                  ",
"              %%%%%%            ...........                     ",
"              %%%%%%              ...                           ",
"               %%%%                                             ",
"                                                                ",
"                                                                ",
"                                                                ",
"                                                                "};
