/* XPM */
static char * komodominiicon_xpm[] = {
"25 25 162 2",
"  	c None",
". 	c #000000",
"+ 	c #020202",
"@ 	c #030303",
"# 	c #040404",
"$ 	c #323232",
"% 	c #3A3A3A",
"& 	c #333333",
"* 	c #252525",
"= 	c #212121",
"- 	c #343434",
"; 	c #2D2C2C",
"> 	c #565555",
", 	c #656464",
"' 	c #5B5A5A",
") 	c #5E5D5D",
"! 	c #2E2E2E",
"~ 	c #141414",
"{ 	c #1E1E1E",
"] 	c #504F4F",
"^ 	c #8F8E8E",
"/ 	c #989797",
"( 	c #4C4B4B",
"_ 	c #3B3A3A",
": 	c #CACACA",
"< 	c #D2D2D2",
"[ 	c #D3D3D3",
"} 	c #D8D8D8",
"| 	c #DADADA",
"1 	c #CBCBCB",
"2 	c #D1D1D1",
"3 	c #E0E0E0",
"4 	c #DBDBDB",
"5 	c #EBEBEB",
"6 	c #E9E9E9",
"7 	c #3D3C3C",
"8 	c #D0D0D0",
"9 	c #D9D9D9",
"0 	c #C8C8C8",
"a 	c #BABABA",
"b 	c #FFA4A4",
"c 	c #FFB4B4",
"d 	c #E4E4E4",
"e 	c #E1E1E1",
"f 	c #FF7F7F",
"g 	c #FF5E5E",
"h 	c #FF3434",
"i 	c #FF0101",
"j 	c #FF2B2B",
"k 	c #ECECEC",
"l 	c #B3B3B3",
"m 	c #828282",
"n 	c #320707",
"o 	c #3E0000",
"p 	c #780000",
"q 	c #D87C7C",
"r 	c #FFD7D7",
"s 	c #E3E3E3",
"t 	c #C7C7C7",
"u 	c #222222",
"v 	c #707070",
"w 	c #CECECE",
"x 	c #0B0B0B",
"y 	c #002800",
"z 	c #005200",
"A 	c #003900",
"B 	c #000400",
"C 	c #6F6F6F",
"D 	c #CFCF99",
"E 	c #282828",
"F 	c #001700",
"G 	c #00BD00",
"H 	c #00FF00",
"I 	c #00E100",
"J 	c #003E00",
"K 	c #CFCFCF",
"L 	c #FFFFBB",
"M 	c #585802",
"N 	c #000200",
"O 	c #00CA00",
"P 	c #56FF56",
"Q 	c #19FF19",
"R 	c #27FF27",
"S 	c #B7F4B7",
"T 	c #172117",
"U 	c #515151",
"V 	c #FFFF1F",
"W 	c #282800",
"X 	c #003A00",
"Y 	c #05FF05",
"Z 	c #94FF94",
"` 	c #48FF48",
" .	c #01FF01",
"..	c #7EFF7E",
"+.	c #FFFFFF",
"@.	c #6D6D6D",
"#.	c #1C1C1C",
"$.	c #FFFF46",
"%.	c #FFFF03",
"&.	c #81816B",
"*.	c #005400",
"=.	c #76FF76",
"-.	c #B1FFB1",
";.	c #07FF07",
">.	c #A0FFA0",
",.	c #838383",
"'.	c #2C2C2C",
").	c #FFFF66",
"!.	c #FFFF1C",
"~.	c #FBFBFB",
"{.	c #151515",
"].	c #001B00",
"^.	c #3FFA3F",
"/.	c #B0FFB0",
"(.	c #5EFF5E",
"_.	c #20FF20",
":.	c #99FF99",
"<.	c #13FF13",
"[.	c #5BFF5B",
"}.	c #545B54",
"|.	c #535353",
"1.	c #FFFFE3",
"2.	c #C1C1D9",
"3.	c #899789",
"4.	c #A2FFA2",
"5.	c #8EFF8E",
"6.	c #B9FFB9",
"7.	c #E0E1E0",
"8.	c #070707",
"9.	c #BBBBBB",
"0.	c #8383FF",
"a.	c #000065",
"b.	c #5E5E5E",
"c.	c #ABFFAB",
"d.	c #EDEDED",
"e.	c #3C3C3C",
"f.	c #3F3F3F",
"g.	c #C3C3C3",
"h.	c #C2C2C2",
"i.	c #D1D1FF",
"j.	c #0000FC",
"k.	c #000072",
"l.	c #A5A5A7",
"m.	c #DCDEDC",
"n.	c #B0B2B0",
"o.	c #010101",
"p.	c #555555",
"q.	c #DEDEDE",
"r.	c #ADADAD",
"s.	c #3636FF",
"t.	c #0A0AFF",
"u.	c #444444",
"v.	c #171717",
"w.	c #525252",
"x.	c #AEAEFF",
"y.	c #D6D6D6",
"z.	c #4D4C4C",
"A.	c #050505",
"B.	c #202020",
"C.	c #383838",
"D.	c #3C3B3B",
"E.	c #292929",
". . . . . . . . . . . . . . . . . . . . . . + @ . ",
"# $ % & $ $ $ $ $ $ $ $ $ $ $ $ $ $ $ $ $ * = - . ",
"+ ; > , , , , , , , , , , , , , , , , , , ' ) ! . ",
"~ { ] ^ / / / / / / / / / / / / / / / / / / / ( . ",
". { _ ' : < [ } | < } 1 } 2 < 1 3 4 3 5 6 6 / ( . ",
". { 7 ' 8 [ 4 4 4 9 9 [ [ 0 a [ | b c d d 3 / ( . ",
". { 7 ' [ | 3 3 e 3 3 9 8 0 f g h i j k 6 5 / ( . ",
". { 7 ' [ 9 4 3 4 } | 2 l m n o p q r 4 s 3 / ( . ",
". { 7 ' } 4 3 e 4 3 t u . . . . . + v 3 6 d / ( . ",
". { 7 ' 3 9 s 4 e w x . . y z A B . . C s 6 / ( . ",
". { 7 ' 4 9 3 3 D E . F G H H H I J . + K d / ( . ",
". { 7 ' } 4 4 L M . N O H P Q H R S T . U d / ( . ",
". { 7 ' [ 9 4 V W . X H Y Z `  ...+.@.. #.3 / ( . ",
". { 7 ' } 4 $.%.&.. *.H H H =.-.;.>.,.. '.4 / ( . ",
". { 7 ' 9 [ ).!.~.{.].^./.(._.:.<.[.}.. |.3 / ( . ",
". { 7 ' [ e } 1.2.. . 3.} 4.H 5.6.7.8.. 9.4 / ( . ",
". { 7 ' } 1 2 1 0.a.. b.[ c.R /.d.e.. f.[ | / ( . ",
". { 7 ' 1 g.h.g.i.j.k.l.} [ m.n.u o.p.q.4 [ / ( . ",
". { 7 ' a r.a h.< s.t.| 4 9 u.v.w.h.4 3 4 4 / ( . ",
". { 7 ' 8 8 [ [ [ i.x.4 3 s 4 s d 4 3 s 4 } / ( . ",
". { 7 ' [ [ 4 4 4 4 3 4 d d d d 3 d 4 4 y.1 / ( . ",
". { z.' , , , , , , , , , , , , , , , , , , / ( . ",
"A.B.$ $ $ $ $ $ $ $ $ $ $ $ $ $ $ $ $ $ $ $ C.D.. ",
"# . . . . . . . . . . . . . . . . . . . . . . E.. ",
". . . . . . . . . . . . . . . . . . . . . . . . . "};
